<svg width="135" height="25" viewBox="0 0 135 25" fill="none" xmlns="http://www.w3.org/2000/svg">
<g clip-path="url(#clip0_2_230)">
<path d="M15.7292 18.4292C15.7292 19.4305 15.5336 20.3164 15.1425 21.087C14.7515 21.853 14.2221 22.4851 13.5591 22.9835C12.7722 23.5787 11.9137 24.0032 10.9742 24.257C10.0346 24.5108 8.84229 24.6354 7.39719 24.6354H0V4.45728H6.17625C7.69766 4.45728 8.83753 4.51265 9.59108 4.61877C10.3494 4.7249 11.0696 4.95561 11.7611 5.29707C12.5242 5.68928 13.0822 6.183 13.4304 6.7967C13.7738 7.40578 13.9502 8.13483 13.9502 8.98385C13.9502 9.94362 13.6974 10.7557 13.1919 11.4294C12.6864 12.1031 12.0139 12.643 11.1745 13.049V13.1597C12.5862 13.4412 13.6974 14.0365 14.5082 14.9547C15.3238 15.8683 15.7292 17.0265 15.7292 18.4292ZM11.0648 9.33454C11.0648 8.85004 10.9789 8.43476 10.812 8.10253C10.6451 7.77031 10.3732 7.49807 10.0012 7.29042C9.56246 7.04587 9.0283 6.89821 8.40352 6.83823C7.77874 6.77824 7.00134 6.75056 6.0761 6.75056H2.77574V12.5784H6.36226C7.23027 12.5784 7.92182 12.5368 8.4369 12.4492C8.94722 12.3615 9.42415 12.1861 9.8677 11.9139C10.3065 11.6463 10.6165 11.2956 10.7977 10.8619C10.9742 10.4281 11.0648 9.92055 11.0648 9.33454ZM12.8437 18.5353C12.8437 17.7232 12.7197 17.0772 12.467 16.5974C12.2142 16.1175 11.7563 15.7114 11.0934 15.3792C10.6451 15.1531 10.1014 15.0054 9.46231 14.9408C8.82322 14.8716 8.04582 14.8393 7.13011 14.8393H2.77574V22.3467H6.4481C7.66428 22.3467 8.65629 22.2867 9.43369 22.1621C10.2063 22.0422 10.8454 21.8161 11.3366 21.4931C11.8613 21.1378 12.2428 20.7363 12.486 20.2841C12.7245 19.832 12.8437 19.2506 12.8437 18.5353Z" fill="#47093E"/>
<path d="M33.4091 24.6354H19.6687V4.45728H33.4091V6.84284H22.4397V12.3753H33.4091V14.7609H22.4397V22.2544H33.4091V24.6354Z" fill="#47093E"/>
<path d="M53.7645 24.6354H50.9888V14.7563H40.5821V24.6354H37.8064V4.45728H40.5821V12.3707H50.9888V4.45728H53.7645V24.6354Z" fill="#47093E"/>
<path d="M75.8128 24.6354H72.8559L70.8098 19.0106H61.7911L59.745 24.6354H56.9312L64.5239 4.45728H68.2201L75.8128 24.6354ZM69.9561 16.7081L66.3028 6.80131L62.6352 16.7081H69.9561Z" fill="#47093E"/>
<path d="M92.6198 10.5573C92.6198 11.4525 92.4577 12.2784 92.1381 13.0444C91.8138 13.8057 91.3655 14.4702 90.7884 15.0285C90.0683 15.7253 89.2193 16.2467 88.2368 16.5927C87.2544 16.9434 86.0191 17.1142 84.5263 17.1142H81.7506V24.6354H78.9749V4.45728H84.636C85.8904 4.45728 86.9491 4.55879 87.8171 4.76182C88.6852 4.96484 89.4578 5.28323 90.1303 5.71697C90.922 6.23376 91.5372 6.87514 91.9712 7.64111C92.4004 8.40707 92.6198 9.38068 92.6198 10.5573ZM89.7344 10.6219C89.7344 9.92516 89.6056 9.32069 89.3576 8.8039C89.1049 8.29172 88.7233 7.86721 88.2082 7.54421C87.7599 7.26274 87.2496 7.06433 86.6725 6.93974C86.1002 6.81977 85.3705 6.75979 84.4929 6.75979H81.7458V14.8255H84.0875C85.2083 14.8255 86.1193 14.7286 86.8204 14.5348C87.5214 14.341 88.089 14.0318 88.5278 13.6073C88.9665 13.1736 89.2766 12.7168 89.4578 12.2369C89.6438 11.757 89.7344 11.2171 89.7344 10.6219Z" fill="#47093E"/>
<path d="M111.039 4.45725L103.112 21.4377C102.793 22.1252 102.421 22.6882 101.987 23.1311C101.553 23.5741 101.081 23.9155 100.58 24.1601C100.094 24.3862 99.6261 24.5385 99.173 24.6169C98.72 24.6907 98.2859 24.7323 97.8615 24.7323C97.4895 24.7323 97.0364 24.7138 96.5022 24.6769C95.9681 24.64 95.6294 24.6169 95.4768 24.6123V22.1021H95.6724C95.8155 22.1206 96.0491 22.1483 96.3735 22.1898C96.6978 22.2313 97.0745 22.2498 97.4942 22.2498C97.6802 22.2498 97.9426 22.236 98.2812 22.2083C98.615 22.1806 98.9155 22.116 99.1778 22.0191C99.4783 21.9083 99.774 21.7376 100.065 21.5023C100.361 21.267 100.609 20.9255 100.814 20.4733L101.319 19.4028L93.5596 4.45264H96.6262L102.721 16.3528L108.182 4.45264H111.039V4.45725Z" fill="#47093E"/>
<path d="M130.035 23.1727C129.52 23.3895 129.058 23.5926 128.643 23.7817C128.228 23.9709 127.684 24.1693 127.011 24.377C126.439 24.5477 125.824 24.6954 125.156 24.82C124.489 24.9399 123.754 25.0045 122.953 25.0045C121.441 25.0045 120.063 24.7969 118.827 24.3862C117.592 23.9755 116.514 23.3295 115.599 22.4528C114.702 21.5946 114.001 20.5056 113.5 19.1813C112.994 17.857 112.742 16.3205 112.742 14.5671C112.742 12.906 112.985 11.4202 113.471 10.1097C113.958 8.79928 114.654 7.69186 115.575 6.78747C116.462 5.91076 117.535 5.2417 118.789 4.78027C120.048 4.31885 121.441 4.08813 122.972 4.08813C124.093 4.08813 125.209 4.22195 126.325 4.48035C127.441 4.74336 128.681 5.20478 130.045 5.86462V9.04845H129.835C128.686 8.11637 127.546 7.44269 126.415 7.01818C125.285 6.59367 124.074 6.38142 122.791 6.38142C121.732 6.38142 120.783 6.54753 119.939 6.87514C119.094 7.20737 118.341 7.71955 117.678 8.41168C117.034 9.08998 116.533 9.94823 116.171 10.9818C115.808 12.0154 115.632 13.2105 115.632 14.5671C115.632 15.9883 115.827 17.2064 116.228 18.2262C116.624 19.2506 117.139 20.0811 117.764 20.7225C118.417 21.3916 119.18 21.8853 120.053 22.2083C120.926 22.5313 121.846 22.6882 122.819 22.6882C124.155 22.6882 125.404 22.4667 126.573 22.0237C127.741 21.5807 128.833 20.9163 129.849 20.0304H130.045V23.1727H130.035Z" fill="#47093E"/>
<path d="M135 2.30251C135 2.93928 134.766 3.47914 134.304 3.92673C133.841 4.37892 133.278 4.60041 132.62 4.60041C131.967 4.60041 131.404 4.37431 130.941 3.92673C130.479 3.47914 130.245 2.93466 130.245 2.30251C130.245 1.67036 130.479 1.12588 130.941 0.678295C131.409 0.226098 131.967 0 132.625 0C133.283 0 133.841 0.226098 134.309 0.67368C134.771 1.12588 135 1.66574 135 2.30251ZM134.681 2.30251C134.681 1.75341 134.48 1.28276 134.075 0.885936C133.674 0.493725 133.188 0.295312 132.62 0.295312C132.053 0.295312 131.566 0.493725 131.166 0.885936C130.765 1.27815 130.56 1.75341 130.56 2.30251C130.56 2.85161 130.76 3.32226 131.166 3.71908C131.566 4.1113 132.053 4.30971 132.62 4.30971C133.188 4.30971 133.674 4.11591 134.075 3.71908C134.48 3.32226 134.681 2.85161 134.681 2.30251ZM134.156 3.46992H133.541L132.63 2.52861H132.186V3.46992H131.733V1.03821H132.592C132.763 1.03821 132.906 1.04282 133.016 1.06128C133.126 1.07512 133.235 1.10742 133.345 1.16279C133.46 1.22278 133.545 1.2966 133.598 1.38427C133.655 1.47195 133.679 1.57807 133.679 1.70727C133.679 1.878 133.627 2.02104 133.522 2.1364C133.417 2.25175 133.274 2.34404 133.092 2.40864L134.156 3.46992ZM133.188 1.73496C133.188 1.67036 133.173 1.61499 133.15 1.56423C133.126 1.51347 133.083 1.47195 133.021 1.43965C132.964 1.40735 132.902 1.38889 132.84 1.37966C132.778 1.37043 132.697 1.36582 132.596 1.36582H132.186V2.18715H132.534C132.649 2.18715 132.744 2.17793 132.83 2.15947C132.911 2.14101 132.983 2.11333 133.03 2.0718C133.088 2.02566 133.126 1.97951 133.15 1.92414C133.173 1.88261 133.188 1.8134 133.188 1.73496Z" fill="#47093E"/>
<path d="M15.7292 18.4292C15.7292 19.4305 15.5336 20.3164 15.1425 21.087C14.7515 21.853 14.2221 22.4851 13.5591 22.9835C12.7722 23.5787 11.9137 24.0032 10.9742 24.257C10.0346 24.5108 8.84229 24.6354 7.39719 24.6354H0V4.45728H6.17625C7.69766 4.45728 8.83753 4.51265 9.59108 4.61877C10.3494 4.7249 11.0696 4.95561 11.7611 5.29707C12.5242 5.68928 13.0822 6.183 13.4304 6.7967C13.7738 7.40578 13.9502 8.13483 13.9502 8.98385C13.9502 9.94362 13.6974 10.7557 13.1919 11.4294C12.6864 12.1031 12.0139 12.643 11.1745 13.049V13.1597C12.5862 13.4412 13.6974 14.0365 14.5082 14.9547C15.3238 15.8683 15.7292 17.0265 15.7292 18.4292ZM11.0648 9.33454C11.0648 8.85004 10.9789 8.43476 10.812 8.10253C10.6451 7.77031 10.3732 7.49807 10.0012 7.29042C9.56246 7.04587 9.0283 6.89821 8.40352 6.83823C7.77874 6.77824 7.00134 6.75056 6.0761 6.75056H2.77574V12.5784H6.36226C7.23027 12.5784 7.92182 12.5368 8.4369 12.4492C8.94722 12.3615 9.42415 12.1861 9.8677 11.9139C10.3065 11.6463 10.6165 11.2956 10.7977 10.8619C10.9742 10.4281 11.0648 9.92055 11.0648 9.33454ZM12.8437 18.5353C12.8437 17.7232 12.7197 17.0772 12.467 16.5974C12.2142 16.1175 11.7563 15.7114 11.0934 15.3792C10.6451 15.1531 10.1014 15.0054 9.46231 14.9408C8.82322 14.8716 8.04582 14.8393 7.13011 14.8393H2.77574V22.3467H6.4481C7.66428 22.3467 8.65629 22.2867 9.43369 22.1621C10.2063 22.0422 10.8454 21.8161 11.3366 21.4931C11.8613 21.1378 12.2428 20.7363 12.486 20.2841C12.7245 19.832 12.8437 19.2506 12.8437 18.5353Z" fill="#47093E"/>
<path d="M33.4091 24.6354H19.6687V4.45728H33.4091V6.84284H22.4397V12.3753H33.4091V14.7609H22.4397V22.2544H33.4091V24.6354Z" fill="#47093E"/>
<path d="M53.7645 24.6354H50.9888V14.7563H40.5821V24.6354H37.8064V4.45728H40.5821V12.3707H50.9888V4.45728H53.7645V24.6354Z" fill="#47093E"/>
<path d="M75.8128 24.6354H72.8559L70.8098 19.0106H61.7911L59.745 24.6354H56.9312L64.5239 4.45728H68.2201L75.8128 24.6354ZM69.9561 16.7081L66.3028 6.80131L62.6352 16.7081H69.9561Z" fill="#47093E"/>
<path d="M92.6198 10.5573C92.6198 11.4525 92.4577 12.2784 92.1381 13.0444C91.8138 13.8057 91.3655 14.4702 90.7884 15.0285C90.0683 15.7253 89.2193 16.2467 88.2368 16.5927C87.2544 16.9434 86.0191 17.1142 84.5263 17.1142H81.7506V24.6354H78.9749V4.45728H84.636C85.8904 4.45728 86.9491 4.55879 87.8171 4.76182C88.6852 4.96484 89.4578 5.28323 90.1303 5.71697C90.922 6.23376 91.5372 6.87514 91.9712 7.64111C92.4004 8.40707 92.6198 9.38068 92.6198 10.5573ZM89.7344 10.6219C89.7344 9.92516 89.6056 9.32069 89.3576 8.8039C89.1049 8.29172 88.7233 7.86721 88.2082 7.54421C87.7599 7.26274 87.2496 7.06433 86.6725 6.93974C86.1002 6.81977 85.3705 6.75979 84.4929 6.75979H81.7458V14.8255H84.0875C85.2083 14.8255 86.1193 14.7286 86.8204 14.5348C87.5214 14.341 88.089 14.0318 88.5278 13.6073C88.9665 13.1736 89.2766 12.7168 89.4578 12.2369C89.6438 11.757 89.7344 11.2171 89.7344 10.6219Z" fill="#47093E"/>
<path d="M111.039 4.45725L103.112 21.4377C102.793 22.1252 102.421 22.6882 101.987 23.1311C101.553 23.5741 101.081 23.9155 100.58 24.1601C100.094 24.3862 99.6261 24.5385 99.173 24.6169C98.72 24.6907 98.2859 24.7323 97.8615 24.7323C97.4895 24.7323 97.0364 24.7138 96.5022 24.6769C95.9681 24.64 95.6294 24.6169 95.4768 24.6123V22.1021H95.6724C95.8155 22.1206 96.0491 22.1483 96.3735 22.1898C96.6978 22.2313 97.0745 22.2498 97.4942 22.2498C97.6802 22.2498 97.9426 22.236 98.2812 22.2083C98.615 22.1806 98.9155 22.116 99.1778 22.0191C99.4783 21.9083 99.774 21.7376 100.065 21.5023C100.361 21.267 100.609 20.9255 100.814 20.4733L101.319 19.4028L93.5596 4.45264H96.6262L102.721 16.3528L108.182 4.45264H111.039V4.45725Z" fill="#47093E"/>
<path d="M130.035 23.1727C129.52 23.3895 129.058 23.5926 128.643 23.7817C128.228 23.9709 127.684 24.1693 127.011 24.377C126.439 24.5477 125.824 24.6954 125.156 24.82C124.489 24.9399 123.754 25.0045 122.953 25.0045C121.441 25.0045 120.063 24.7969 118.827 24.3862C117.592 23.9755 116.514 23.3295 115.599 22.4528C114.702 21.5946 114.001 20.5056 113.5 19.1813C112.994 17.857 112.742 16.3205 112.742 14.5671C112.742 12.906 112.985 11.4202 113.471 10.1097C113.958 8.79928 114.654 7.69186 115.575 6.78747C116.462 5.91076 117.535 5.2417 118.789 4.78027C120.048 4.31885 121.441 4.08813 122.972 4.08813C124.093 4.08813 125.209 4.22195 126.325 4.48035C127.441 4.74336 128.681 5.20478 130.045 5.86462V9.04845H129.835C128.686 8.11637 127.546 7.44269 126.415 7.01818C125.285 6.59367 124.074 6.38142 122.791 6.38142C121.732 6.38142 120.783 6.54753 119.939 6.87514C119.094 7.20737 118.341 7.71955 117.678 8.41168C117.034 9.08998 116.533 9.94823 116.171 10.9818C115.808 12.0154 115.632 13.2105 115.632 14.5671C115.632 15.9883 115.827 17.2064 116.228 18.2262C116.624 19.2506 117.139 20.0811 117.764 20.7225C118.417 21.3916 119.18 21.8853 120.053 22.2083C120.926 22.5313 121.846 22.6882 122.819 22.6882C124.155 22.6882 125.404 22.4667 126.573 22.0237C127.741 21.5807 128.833 20.9163 129.849 20.0304H130.045V23.1727H130.035Z" fill="#47093E"/>
</g>
<defs>
<clipPath id="clip0_2_230">
<rect width="135" height="25" fill="white"/>
</clipPath>
</defs>
</svg>
