<svg width="22" height="26" viewBox="0 0 22 26" fill="none" xmlns="http://www.w3.org/2000/svg">
<path d="M20.1163 11.0002C20.1163 12.1552 19.5817 13.5617 18.645 15.0986C17.7216 16.6137 16.4749 18.147 15.2043 19.5299C13.9373 20.909 12.6669 22.1166 11.7117 22.9804C11.3417 23.3151 11.0199 23.5973 10.7651 23.8169C10.5103 23.5973 10.1885 23.3151 9.81843 22.9804C8.86319 22.1166 7.59288 20.909 6.32583 19.5299C5.05522 18.147 3.80857 16.6137 2.8851 15.0986C1.94842 13.5617 1.41382 12.1552 1.41382 11.0002C1.41382 5.83562 5.60052 1.64893 10.7651 1.64893C15.9296 1.64893 20.1163 5.83562 20.1163 11.0002Z" stroke="#47093E" stroke-width="2"/>
<path d="M8.05762 14.9525L10.9531 7.42432L13.8485 14.9525" stroke="#47093E" stroke-width="1.7" stroke-linejoin="bevel"/>
<path d="M8.91113 12.4839H12.9949" stroke="#47093E" stroke-width="1.7" stroke-linejoin="bevel"/>
</svg>
