<svg width="8" height="8" viewBox="0 0 8 8" fill="none" xmlns="http://www.w3.org/2000/svg">
<path d="M8 3.59192C8 4.58527 7.6486 5.42746 6.95295 6.12569C6.2573 6.83112 5.41105 7.17663 4.42136 7.17663C3.43885 7.17663 2.59258 6.82392 1.89694 6.12569C1.20129 5.42746 0.849884 4.57807 0.849884 3.59192C0.849884 2.60576 1.20129 1.75637 1.89694 1.05814C2.59976 0.352713 3.43884 0 4.42852 0C5.41821 0 6.25729 0.352713 6.9601 1.05094C7.65575 1.75637 8 2.59856 8 3.59192ZM7.51951 3.59192C7.51951 2.73533 7.21829 2.00111 6.6087 1.38206C6.00629 0.77021 5.27479 0.460687 4.42136 0.460687C3.56794 0.460687 2.83642 0.77021 2.234 1.38206C1.63159 1.99391 1.32321 2.73533 1.32321 3.59192C1.32321 4.4485 1.62441 5.18272 2.234 5.80177C2.83642 6.41362 3.56794 6.72314 4.42136 6.72314C5.27479 6.72314 6.00629 6.42082 6.6087 5.80177C7.21829 5.18272 7.51951 4.4485 7.51951 3.59192ZM6.73063 5.41307H5.80548L4.4357 3.94463H3.76874V5.41307H3.08743V1.6196H4.37834C4.63651 1.6196 4.85165 1.6268 5.0166 1.65559C5.18155 1.67719 5.3465 1.72757 5.51144 1.81395C5.68356 1.90753 5.81265 2.0227 5.89154 2.15947C5.9776 2.29623 6.01347 2.46179 6.01347 2.66334C6.01347 2.92968 5.93457 3.15282 5.77679 3.33278C5.61901 3.51274 5.40387 3.6567 5.13135 3.75747L6.73063 5.41307ZM5.27479 2.70653C5.27479 2.60576 5.25326 2.51938 5.2174 2.4402C5.18155 2.36102 5.11701 2.29623 5.02378 2.24585C4.93772 2.19546 4.84448 2.16667 4.75125 2.15227C4.65802 2.13787 4.5361 2.13068 4.38549 2.13068H3.76874V3.41196H4.29228C4.4644 3.41196 4.60783 3.39756 4.73692 3.36877C4.85883 3.33998 4.9664 3.29679 5.03811 3.232C5.12417 3.16002 5.18155 3.08804 5.2174 3.00166C5.25326 2.93688 5.27479 2.8289 5.27479 2.70653Z" fill="#47093E"/>
</svg>
